<?xml version="1.0" encoding="utf-8"?>
<!-- Generator: Adobe Illustrator 17.1.0, SVG Export Plug-In . SVG Version: 6.00 Build 0)  -->
<!DOCTYPE svg PUBLIC "-//W3C//DTD SVG 1.1//EN" "http://www.w3.org/Graphics/SVG/1.1/DTD/svg11.dtd">
<svg version="1.1" id="Capa_1" xmlns="http://www.w3.org/2000/svg" xmlns:xlink="http://www.w3.org/1999/xlink" x="0px" y="0px"
	 viewBox="0 0 453.5 81.4" enable-background="new 0 0 453.5 81.4" xml:space="preserve">
<defs>
	<filter id="Adobe_OpacityMaskFilter" filterUnits="userSpaceOnUse" x="0" y="0" width="453.5" height="81.4">
		<feFlood  style="flood-color:white;flood-opacity:1" result="back"/>
		<feBlend  in="SourceGraphic" in2="back" mode="normal"/>
	</filter>
</defs>
<mask maskUnits="userSpaceOnUse" x="0" y="0" width="453.5" height="81.4" id="SVGID_1_">
	<g filter="url(#Adobe_OpacityMaskFilter)">
		<linearGradient id="SVGID_2_" gradientUnits="userSpaceOnUse" x1="-4.0724" y1="37.4374" x2="458.9276" y2="37.4374">
			<stop  offset="0" style="stop-color:#000000"/>
			<stop  offset="1" style="stop-color:#FFFFFF"/>
		</linearGradient>
		<rect x="-4.1" y="-13.6" fill="url(#SVGID_2_)" width="463" height="102"/>
	</g>
</mask>
<g mask="url(#SVGID_1_)">
	<path d="M453.5,45.7c-0.6,0.4-0.5,1.1-0.7,1.7c-1.6,5.1-3.7,10-7.6,13.8c-2.4,2.3-5.1,4-8.5,4.2c-4.1,0.2-6.5-1.2-8.2-5.1
		c-0.7-1.6-1.1-3.2-1.4-5.1c-1.2,1.7-2.2,3.3-3.4,4.7c-1,1.1-2.2,2-3.7,2.2c-2.5,0.3-4.1-0.6-4.9-3c-0.9-2.7-0.8-5.4-0.6-8.2
		c0.2-1.9,0.5-3.8,0.9-6c-0.7,0.6-1,1.2-1.3,1.8c-1.9,3.2-3.4,6.5-4.9,9.8c-0.8,1.7-2.1,2.8-3.9,3.2c-1.3,0.3-1.9,0-2.1-1.3
		c-0.4-2.4-0.5-4.8-0.4-7.2c0-1,0-2,0-3.1c-0.7,0.5-0.8,1.1-1,1.7c-1.4,3.5-2.4,7.2-3.1,10.9c-0.3,1.6-1.4,2.2-2.8,2.6
		c-1.5,0.3-2.9,0.1-4.1-1.1c-0.5-0.5-0.4-1.2-0.4-1.8c0-1.5,0-3,0-4.7c-0.6,0.4-0.7,0.9-0.9,1.3c-0.8,1.5-1.7,3-3,4.1
		c-2.7,2.4-6.6,1.8-8.4-1.4c-0.6-1-0.9-2-1.2-3.2c-0.4,0.2-0.5,0.6-0.7,0.9c-0.7,1.2-1.5,2.5-2.6,3.4c-2.9,2.6-6.4,2.2-8.6-1
		c-0.2-0.2-0.3-0.4-0.5-0.8c-0.6,1.4-1.2,2.8-2,4c-3.3,4.8-9.2,4.6-12.2-0.4c-2.5-4.2-2.8-8.8-2.4-13.4c0.3-3.2,1.1-6.2,2.7-9
		c0.8-1.4,1.8-2.6,3.1-3.6c3.5-2.8,8-2.2,10.6,1.4c0.1,0.2,0.2,0.3,0.4,0.5c1.3-1.1,2.7-1.1,4.2-0.6c1.9,0.7,2.8,2.2,2.4,4.2
		c-0.7,3.7-1.2,7.5-1.1,11.3c0,1,0.1,2.1,0.4,3.1c0.4,1,0.9,1.1,1.6,0.3c0.8-1,1.3-2.2,1.8-3.4c0.9-2.1,1.7-4.3,2.4-6.5
		c0.4-1.4,0.7-2.8,0.6-4.2c0-0.5,0-1,0-1.6c0-1.6,0.6-2.8,2.2-3.3c1.7-0.5,3.2-0.1,4.4,1.1c0.8,0.8,1,1.8,0.8,3
		c-0.8,4.2-1.4,8.4-1.1,12.7c0,0.6,0.1,1.2,0.3,1.8c0.1,0.4,0.3,0.9,0.8,1c0.5,0.1,0.8-0.3,1.1-0.6c0.7-1.1,1.3-2.2,1.7-3.4
		c0.8-2.2,1.6-4.3,2.4-6.5c0.7-1.8,0.4-3.6,0.5-5.5c0.1-1,0.1-2,0.3-3c0.6-2.9,4-5.3,7-5c1.3,0.1,1.7,0.7,1.4,2
		c-0.9,4.5-1.6,9-1.8,13.5c-0.3,0.7-0.2,1.3,0,2c0.1-0.3,0.1-0.5,0.2-0.8c1.1-2.7,2.1-5.3,3.6-7.8c1.2-2,3-2.9,5.2-3.1
		c2.3-0.2,3.2,0.9,2.7,3.1c-0.3,1.4-0.4,2.8-0.5,4.2c-0.3,0.3-0.2,0.6-0.1,0.9c0.3-0.1,0.4-0.3,0.4-0.6c1.8-3.3,3.8-6.5,6-9.5
		c1.3-1.8,3.1-2.7,5.3-2.7c2.2,0,3.1,1.2,2.8,3.3c-0.8,5.3-1.9,10.6-2.4,16c-0.1,0.8-0.1,1.7-0.1,2.5c0,0.2,0,0.5,0.2,0.6
		c0.3,0.2,0.6-0.1,0.7-0.2c0.3-0.3,0.7-0.7,0.9-1.1c2.3-3.6,4.1-7.5,5.1-11.7c0.9-3.7,2.1-7.2,4.5-10.2c2.5-3.1,6.1-3.4,9-0.7
		c2.7,2.5,3.9,5.6,3.9,9.2c0,2.1-1.3,3.6-3,4.6c-2,1.1-4.2,1.7-6.5,1.8c-0.9,0.1-1.4,0.3-1.5,1.4c-0.2,2.6-0.4,5.3,0.4,7.9
		c0.8,2.8,2.7,3.5,5.2,1.9c1.4-0.9,2.6-2.1,3.6-3.5c2.6-3.5,4.7-7.2,6.3-11.2c0.4-1,0.8-1.7,1.9-1.8c1.1-0.1,1.5,0.7,1.9,1.4
		C453.5,45.3,453.5,45.5,453.5,45.7z M355.3,54.3c0,1.9,0.1,3.8,0.7,5.6c0.4,1.1,0.8,2.3,2.1,2.4c1.3,0.2,2-0.9,2.6-1.8
		c0.2-0.4,0.4-0.8,0.6-1.1c1.6-3.3,2.4-6.8,2.6-10.4c0.2-2.3,0-4.6-0.8-6.8c-0.8-2.1-2.5-2.4-4.1-0.9c-0.6,0.6-1.1,1.3-1.5,2.1
		C355.9,46.8,355.4,50.5,355.3,54.3z M439.5,40.4c-0.1-0.9-0.1-2.1-0.5-3.1c-0.1-0.4-0.2-0.9-0.6-0.9c-0.5-0.1-0.7,0.4-0.9,0.8
		c-1.1,2.1-1.6,4.3-2.1,6.6c-0.1,0.5,0.2,0.6,0.6,0.5C438.5,44.1,439.3,43.2,439.5,40.4z"/>
	<path d="M163.6,49.8c0.9-2.2,1.8-4.4,3.2-6.4c1.3-1.9,3.9-2.9,6.1-2.5c1.5,0.3,2,1.2,1.7,2.7c-0.9,3.4-1,6.8-0.6,10.2
		c0.1,0.5,0.1,1.1,0.6,1.2c0.4,0.1,0.8-0.3,1.1-0.6c2.7-2.8,4.5-6.2,5.7-9.9c1-3.2,2.4-6.1,5.3-8c3.1-2,7.2-1.8,10.2,0.7
		c0.1-1.3,0.3-2.5,0.3-3.7c0.2-4.8,1-9.5,1.1-14.3c0-3.2,2.9-4.8,5.7-3.5c1.6,0.7,2.1,1.7,1.9,3.4c-1.1,8.5-2.1,17.1-2.4,25.6
		c-0.1,3.5-0.2,7,0.2,10.4c0.1,0.8,0.2,1.5,0.5,2.2c0.4,0.9,1,1,1.8,0.3c0.5-0.4,0.8-1,1.1-1.6c1.6-3.2,3-6.5,3.7-10.1
		c0.1-0.4,0.2-0.8,0.4-1.1c0.3-0.7,0.3-1.2-0.1-1.9c-0.8-1.3-0.6-2.8,0.2-4.1c0.8-1.3,1.9-2.2,3.5-2.1c1.6,0,2.3,0.7,2.2,2.3
		c0,0.6-0.1,1.3-0.3,1.9c-0.4,1,0.1,1.1,0.9,1c1.2-0.1,2.5-0.3,3.7-0.3c1.9,0.1,2.4,0.8,2.1,2.6c-0.7,3.6-1.5,7.1-1.6,10.8
		c0,1,0,1.9,0.2,2.8c0.1,0.4,0.3,0.9,0.8,0.9c0.5,0.1,0.7-0.3,1-0.6c0.9-1.2,1.5-2.6,2.1-4c1.4-3.1,2.6-6.2,3.4-9.4
		c0.6-2.7,1.8-5.1,3.7-7.1c3.4-3.5,9-3.6,12.5-0.2c2.6,2.5,3.6,5.6,3.6,9.1c0.1,4.4-1.2,8.3-4.6,11.2c-4.5,3.8-11.1,2.8-14.2-2.2
		c-0.1-0.2-0.2-0.3-0.4-0.5c-1.1,2.4-2.4,4.7-4.3,6.5c-1.3,1.2-2.7,2.1-4.5,2.2c-2.2,0.2-3.7-0.7-4.6-2.7c-1.4-3.2-1.4-6.6-1-10
		c0.2-1.9,0.6-3.9,1.2-5.7c-1.5-0.3-1.5-0.3-1.8,1.1c-0.9,4-1.9,7.9-4.1,11.4c-0.9,1.4-1.9,2.8-3.2,3.9c-1.3,1.1-2.7,1.6-4.4,1.7
		c-1.9,0.1-3.2-0.7-4.1-2.3c-0.7-1.2-1.2-2.6-1.6-4.1c-0.5,0.8-0.9,1.5-1.3,2.1c-3.6,5.1-10,4.9-13.2-0.5c-0.9-1.5-1.4-3-1.8-4.7
		c-0.4,0-0.5,0.4-0.7,0.6c-0.9,1.4-2,2.6-3.1,3.8c-2.6,2.7-7.4,2.1-8.8-1.9c-0.7-1.9-0.8-3.7-0.7-5.7c0-0.6,0-1.2,0-1.9
		c-0.8,0.4-1,0.9-1.2,1.5c-1.2,2.8-1.9,5.7-2.4,8.6c-0.2,1.5-1,2.4-2.6,2.8c-1.6,0.3-3.2,0.3-4.4-1.1c-0.4-0.5-0.5-1.1-0.4-1.7
		c0-1,0-1.9,0-2.9c-0.4,0-0.4,0.4-0.5,0.7c-0.8,1.6-1.8,3.1-3.1,4.3c-2.5,2.3-5.8,2.1-8-0.5c-0.3-0.4-0.6-0.8-1-1.3
		c-0.5,1.3-1.1,2.6-1.9,3.7c-3.4,5.1-9.5,4.9-12.5-0.5c-2.3-4.1-2.7-8.7-2.2-13.3c0.3-3.3,1.2-6.5,3-9.4c1.9-2.8,4.2-4.9,7.9-4.8
		c2.4,0,4.1,1,5.4,2.9c0.3,0.5,0.5,0.6,1.1,0.2c1.6-0.9,3.2-0.6,4.6,0.3c1.4,0.9,1.6,2.2,1.3,3.8c-0.8,4.4-1.5,8.9-0.9,13.5
		c0,0.3,0.1,0.6,0.2,0.8c0.1,0.4,0.3,0.8,0.8,0.8c0.4,0,0.6-0.2,0.9-0.5c0.6-0.8,1-1.6,1.4-2.5c1.2-2.6,2.2-5.3,3-8.1
		c0.5-1.7,0.3-3.5,0.5-5.2c0.4-3.4,2.5-5.3,5.6-5.1c2,0.1,2.9,1.2,2.6,3.2c-0.4,2.6-0.9,5.1-1.3,7.7c-0.1,0.5-0.1,1.1-0.1,1.7
		c-0.3,0.7-0.2,1.4,0,2.1C163.4,50.4,163.5,50.1,163.6,49.8z M134.1,54.1c-0.1,1.8,0,3.6,0.5,5.3c0.4,1.2,0.7,2.6,2.3,2.8
		c1.5,0.2,2.2-1,2.8-2.1c1.7-2.8,2.4-5.8,2.8-8.9c0.5-3.1,0.5-6.1-0.6-9.1c-0.7-2.1-2.5-2.5-4.1-0.9c-0.8,0.8-1.3,1.7-1.8,2.7
		C134.6,47.1,134.1,50.6,134.1,54.1z M187.3,51.9c0,1.2,0,2.4,0.3,3.6c0.1,0.5,0.3,1.1,0.5,1.6c1,2.3,3,2.6,4.5,0.6
		c1.4-1.8,2.2-3.9,2.7-6.2c0.8-3.3,1.1-6.6-0.1-9.9c-0.7-2-2.5-2.5-4.2-1.1c-0.9,0.7-1.5,1.7-2,2.8C187.8,46.1,187.4,49,187.3,51.9z
		 M235.8,46.9c0,2.3,0.3,4.6,1.3,6.7c0.5,1.1,1.3,1.9,2.6,1.9c1.2,0,1.7-1.1,2-2.1c1.3-4.3,1.2-8.6-0.7-12.8c-0.4-0.9-1-1.8-2.2-1.8
		c-1.2,0.1-1.6,1.1-2,2C236,42.8,235.8,44.8,235.8,46.9z"/>
	<path d="M342.3,9.7c1.4,5.6,2.3,11,2.4,16.5C345,39,342.1,50.9,333.8,61c-11.1,13.6-27.6,15.2-41.5,8.7
		c-5.5-2.6-10.1-6.3-13.1-11.7c-2.3-4-3-8.3-2.3-12.8c0-0.1,0-0.2,0-0.2c0.3-1.1,0.7-2.3,1.9-2.6c1.2-0.3,1.8,0.9,2.3,1.8
		c1.2,2.1,2.3,4.2,3.5,6.2c3.5,6.1,8.2,10.9,15,13.1c12.1,3.9,26.1,0.2,32.8-14.1c3.3-7.1,4.8-14.6,5.8-22.2
		c0.7-5.5,0.7-11,1.1-16.5c0.1-0.7-0.2-0.7-0.8-0.7c-5.5,0.4-10.9,1.2-16.3,1.8c-12.8,1.6-25.6,3.3-38.5,3c-3-0.1-6.1-0.3-8.9-1.4
		c-1.1-0.4-2-0.9-2.9-1.7c-0.9-0.8-1.3-1.8-1.1-2.9c0.2-1.1,1.3-1.4,2.2-1.6c2.6-0.8,5.3-1,8.1-1C294.5,6.3,308,5.5,321.5,5
		c5.5-0.2,11-0.3,16.5-0.5c3.1-0.1,6.2-0.4,9.3-0.2c1,0.1,1.9,0.2,2.8,0.4c0.9,0.2,1.8,0.6,1.9,1.7c0.1,1.2-0.6,1.8-1.6,2.3
		c-2.1,0.9-4.4,0.9-6.6,1.1C343.4,9.7,342.9,9.7,342.3,9.7z"/>
	<path d="M64.4,62.1c0.6-4.5,0.8-9,0.6-13.6c0-1.2-0.3-1.6-1.6-1.5C51.7,47.5,40,47.8,28.3,48c-3.3,0.1-6.6,0.1-9.8,0.1
		c-1.2,0-1.6,0.4-1.7,1.6c-0.3,4.1-0.6,8.3-1,12.4c-0.1,0.9-0.1,1.8-0.4,2.7c-0.4,1.1-0.9,1.2-1.8,0.5c-0.8-0.6-1.3-1.5-1.8-2.4
		c-2.4-4.3-3.5-9-3.2-13.9c0.1-0.8-0.2-0.9-0.9-0.9c-1.7,0-3.4,0.1-5-0.3c-0.6-0.2-1.2-0.4-1.8-0.6c-1.2-0.6-1.2-1.4-0.1-2
		c1.6-0.9,3.3-1,5.1-1.1c0.9,0,1.8-0.1,2.8,0c0.7,0,1-0.2,1.2-1c1.5-7.1,3.5-14,6.7-20.5c3-6.4,6.5-12.4,12-16.9
		c6.9-5.7,14.6-7.4,23-4.1c6.1,2.3,9.9,7.2,12.7,12.9c3.8,7.9,5.5,16.4,5.8,25.1c0,0.8,0.3,1.2,1,1.4c1,0.3,1.8,0.8,2.6,1.4
		c0.9,0.7,1.2,1.7,1,2.8c-0.2,1-1.2,1.2-2,1.4c-0.2,0.1-0.5,0.1-0.7,0.1c-0.7,0.1-1.7-0.1-1.9,0.2c-0.4,0.6-0.3,1.5-0.4,2.3
		c-0.5,4.5-1.1,9-2.6,13.4c-0.3,0.8-0.6,1.6-1.1,2.2c-0.3,0.3-0.6,0.6-1,0.5c-0.4-0.1-0.3-0.6-0.4-0.9C64.3,63.7,64.4,63,64.4,62.1z
		 M17.5,43.5c0.3,0,0.4,0.1,0.6,0c4.4-0.5,8.9-1,13.3-1.5c7.3-0.9,14.6-1.7,21.9-2c3.2-0.2,6.5-0.2,9.7,0c0.8,0,1.2,0.1,1-1
		c-0.4-3-0.9-5.9-1.5-8.8c-1.2-5.6-3-11-6.4-15.7C53,10.1,49,7.3,43.5,7.5c-4.6,0.1-8.2,2.4-11.4,5.4C23.4,21.2,19.5,31.9,17.5,43.5
		z"/>
	<path d="M115.3,55.9c-1.3,2.1-2.7,4-4.4,5.6c-2.6,2.4-5.5,4-9.2,4c-2.8,0-5-1.2-6.5-3.6c-0.8-1.3-1.3-2.6-1.7-4.1
		c-0.5,0.4-0.6,1-0.8,1.5c-0.9,1.9-1.9,3.7-3.3,5.3c-0.8,0.9-1.7,1.7-2.8,2.2c-2.7,1.1-5,0.2-6.3-2.5c-1.7-3.7-2-7.6-2.2-11.6
		c-0.3-8.8,0.6-17.6,1.4-26.3c0.2-1.9,0.3-3.8,0.3-5.7c0.1-3.2,2.9-5,5.8-3.7c1.6,0.7,2.1,1.7,1.9,3.4c-1.3,8.9-2,17.9-2.4,26.8
		c-0.2,3.7-0.3,7.4,0.2,11.1c0.1,0.9,0.1,2.2,1.1,2.4c1.1,0.2,1.3-1.1,1.7-1.9c2.3-5,4.2-10.2,5.6-15.5c0.9-3.2,2-6.3,4-9
		c2.9-3.8,6.9-4,10.1-0.5c2.2,2.4,3.3,5.4,3.2,8.7c-0.1,1.9-1.1,3.2-2.6,4.2c-2,1.2-4.2,1.8-6.6,2c-1.7,0.2-1.7,0.2-1.9,1.9
		c-0.2,2.4-0.3,4.7,0.3,7c0.8,3.3,2.8,4,5.6,2.2c1.9-1.3,3.3-3.1,4.6-5c1.6-2.4,2.9-5,4.3-7.6c1.3-2.4,0.9-5,1.1-7.5
		c0.1-1.3-0.1-2.6,1.4-3.2c1.7-0.7,3.5-0.9,5.2,0.1c0.6,0.4,0.9,1,0.8,1.8C122,51,122,63.6,121.8,76.2c-0.1,3-3.8,5.9-6.8,5.2
		c-1.1-0.3-1.5-0.9-1.3-1.9C114.9,71.6,114.8,63.8,115.3,55.9z M105.3,39.8c0-0.7-0.2-1.7-0.5-2.8c-0.1-0.3-0.2-0.8-0.6-0.8
		c-0.4,0-0.6,0.4-0.8,0.7c-1.2,2.1-1.7,4.5-2.2,6.8c-0.1,0.6,0.2,0.5,0.5,0.5C104.3,44.1,105.3,43,105.3,39.8z"/>
	<path d="M120.3,32.7c-1.8-0.1-3.7-0.4-5.4-1.6c-2.7-1.9-2.5-5.3,0.5-6.9c2.9-1.6,7.9-1.1,10.4,1c2,1.7,1.9,4.7-0.3,6.1
		C123.9,32.3,122.3,32.7,120.3,32.7z"/>
	<path d="M383.2,24.4c1.4,0,2.5,0.2,3.6,0.7c3,1.3,3.5,4.7,1,6.8c-2,1.7-4.4,2.3-7.1,2.1c-0.9-0.1-1.8-0.3-2.7-0.6
		c-2.9-1.1-3.7-4.3-1.4-6.5C378.5,25,380.9,24.5,383.2,24.4z"/>
	<path fill="#F6F6F6" d="M163.6,49.8c-0.1,0.3-0.2,0.6-0.2,0.9c-0.2-0.7-0.3-1.4,0-2.1C163.5,49,163.2,49.5,163.6,49.8z"/>
	<path fill="#D4D4D4" d="M398,50.3c-0.1,0.3-0.1,0.5-0.2,0.8c-0.2-0.7-0.2-1.4,0-2C398,49.4,397.7,49.9,398,50.3z"/>
	<path fill="#929292" d="M409.4,46.9c0,0.3-0.1,0.5-0.4,0.6c-0.1-0.3-0.1-0.6,0.1-0.9C409.2,46.8,409.3,46.9,409.4,46.9z"/>
</g>
<g display="none">
	<g display="inline">
		<linearGradient id="SVGID_3_" gradientUnits="userSpaceOnUse" x1="-134.1667" y1="-32.3058" x2="356.8201" y2="-32.3058">
			<stop  offset="0" style="stop-color:#FFFFFF"/>
			<stop  offset="1" style="stop-color:#000000"/>
		</linearGradient>
		<path fill="url(#SVGID_3_)" d="M-68.1-22c0-0.8,0-1.7-0.1-2.8c0-1-0.1-2.1-0.1-3.4c-8,0.3-16,0.6-23.9,0.8
			c-7.9,0.2-15.9,0.4-24,0.5c-0.3,2.5-0.6,4.9-0.8,7.4c-0.2,2.5-0.4,5-0.5,7.5c-0.1,1.8-0.5,2.7-1.1,2.7c-0.4,0-0.8-0.2-1.3-0.8
			c-0.5-0.5-0.9-1.1-1.3-1.8c-0.4-0.7-0.8-1.4-1.1-2.1c-0.3-0.7-0.6-1.2-0.7-1.6c-0.5-1.3-0.9-2.7-1.2-4.1c-0.3-1.4-0.4-2.8-0.4-4.3
			c0-0.5,0-0.9,0-1.4c0-0.5,0.1-1,0.2-1.5h-3.5c-0.3,0-0.8,0-1.3-0.1c-0.6-0.1-1.1-0.2-1.7-0.4c-0.6-0.2-1.1-0.4-1.5-0.6
			c-0.4-0.2-0.6-0.5-0.6-0.8c0-0.3,0.2-0.6,0.6-0.9c0.4-0.3,0.9-0.5,1.5-0.6c0.6-0.2,1.3-0.3,2-0.4c0.7-0.1,1.4-0.1,2-0.1h3.5
			c0.5-2.6,1.2-5.5,2.1-8.7c0.9-3.2,2-6.5,3.4-9.8c1.4-3.3,3-6.4,4.8-9.5c1.8-3.1,3.9-5.8,6.2-8.2c2.3-2.4,4.9-4.3,7.8-5.8
			c2.9-1.4,6-2.1,9.5-2.1c3.3,0,6.3,0.6,9,1.9c2.6,1.3,4.9,3,6.8,5.1c1.9,2.1,3.6,4.6,4.9,7.4c1.3,2.8,2.4,5.6,3.3,8.6
			c0.9,3,1.5,6,1.9,9.1c0.4,3.1,0.6,5.9,0.7,8.6c1.1,0.3,2.2,0.8,3.1,1.4c1,0.6,1.5,1.5,1.5,2.6c0,0.5-0.2,0.8-0.5,1.1
			c-0.3,0.3-0.8,0.5-1.2,0.6c-0.5,0.1-1,0.2-1.6,0.2c-0.6,0-1.1,0-1.6,0c-0.1,1.4-0.3,3.2-0.6,5.2c-0.3,2.1-0.6,4.1-1.1,6.1
			c-0.4,2-0.9,3.6-1.5,5.1c-0.6,1.4-1.2,2.1-1.9,2.1c-0.3,0-0.4-0.4-0.4-1.1c0-1.9,0.1-3.8,0.4-5.7C-68.2-18.1-68.1-20-68.1-22z
			 M-101.7-61.6c-4.3,4.5-7.5,9.2-9.6,14.4c-2.1,5.1-3.5,10.4-4.4,15.9c3.9-0.3,7.8-0.7,11.6-1.2s7.8-1,11.7-1.4s7.8-0.7,11.7-0.9
			c3.9-0.2,7.8-0.2,11.8-0.1c-0.4-3.6-1-7.3-1.9-11.1c-0.9-3.8-2.1-7.3-3.7-10.5c-1.6-3.2-3.6-5.8-6.1-7.9c-2.4-2.1-5.4-3.1-8.9-3.1
			c-2.3,0-4.4,0.6-6.5,1.7C-98-64.8-99.9-63.4-101.7-61.6z"/>
		<linearGradient id="SVGID_4_" gradientUnits="userSpaceOnUse" x1="-134.1667" y1="-32.3058" x2="356.8201" y2="-32.3058">
			<stop  offset="0" style="stop-color:#FFFFFF"/>
			<stop  offset="1" style="stop-color:#000000"/>
		</linearGradient>
		<path fill="url(#SVGID_4_)" d="M-53.3-54.2c0-1.6,0.4-2.7,1.3-3.4c0.9-0.6,1.8-0.9,2.9-0.9c1,0.1,1.9,0.4,2.7,1.1
			c0.8,0.7,1.1,1.5,0.9,2.6c-0.1,0.8-0.4,2.4-0.6,4.7c-0.3,2.3-0.6,5-0.9,8.1c-0.3,3-0.5,6.2-0.7,9.4c-0.2,3.3-0.3,6.3-0.4,9.1
			c0,2.8,0.1,5,0.3,6.8c0.2,1.8,0.7,2.6,1.4,2.6c0.4,0,1-0.7,1.6-2.2c0.7-1.5,1.4-3.1,2.1-5c0.7-1.9,1.4-3.7,2-5.5
			c0.6-1.8,1-2.9,1.2-3.5c0.1-0.6,0.4-1,0.9-1.2c0.5-0.2,0.9-0.2,1.4-0.1c0.4,0.1,0.8,0.3,1.1,0.7c0.3,0.4,0.4,0.9,0.1,1.5
			c-0.4,1.3-0.9,3.2-1.6,5.6c-0.7,2.4-1.5,4.8-2.5,7.1c-1,2.3-2.2,4.4-3.6,6.1c-1.4,1.7-3.1,2.6-5,2.6c-1.8,0-3.2-1-4.1-2.9
			s-1.5-4.3-1.9-7.3c-0.3-2.9-0.4-6.2-0.3-9.8c0.1-3.6,0.3-7.1,0.5-10.6c0.3-3.4,0.5-6.6,0.8-9.4C-53.4-50.5-53.3-52.7-53.3-54.2z"
			/>
		<linearGradient id="SVGID_5_" gradientUnits="userSpaceOnUse" x1="-134.1667" y1="-32.3058" x2="356.8201" y2="-32.3058">
			<stop  offset="0" style="stop-color:#FFFFFF"/>
			<stop  offset="1" style="stop-color:#000000"/>
		</linearGradient>
		<path fill="url(#SVGID_5_)" d="M-23-29.9c-0.5,0.7-1.2,1.3-2,1.8c-0.8,0.5-1.7,0.9-2.6,1.2c-0.9,0.3-1.9,0.5-2.9,0.6
			c-1,0.1-1.8,0.2-2.5,0.3c-0.2,1.4-0.3,2.8-0.4,4.1c0,1.3,0,2.5,0.2,3.6c0.2,1.1,0.4,2,0.8,2.7c0.4,0.7,0.9,1.2,1.5,1.4
			c0.9,0.3,1.8,0.1,2.8-0.5c1-0.6,2-1.4,2.9-2.4c0.9-1,1.8-2.2,2.7-3.5c0.9-1.3,1.6-2.6,2.3-3.9c0.7-1.2,1.2-2.4,1.7-3.4
			c0.5-1,0.8-1.8,0.9-2.2c0.2-0.6,0.5-1,0.9-1.2c0.4-0.2,0.9-0.3,1.2-0.2c0.4,0.1,0.7,0.3,1,0.6c0.3,0.4,0.3,0.9,0.2,1.5
			c-0.1,0.4-0.4,1.2-0.7,2.4c-0.3,1.2-0.8,2.5-1.5,3.9c-0.6,1.5-1.4,3-2.3,4.6c-0.9,1.6-2,3-3.2,4.3c-1.3,1.3-2.7,2.4-4.3,3.2
			c-1.6,0.9-3.5,1.3-5.5,1.3c-2.4,0-4.3-0.8-5.6-2.5c-1.3-1.7-2.2-3.8-2.7-6.3c-0.5-2.5-0.6-5.2-0.2-8.1c0.3-2.9,0.9-5.6,1.8-8.1
			c0.9-2.5,2-4.6,3.4-6.3c1.4-1.7,2.9-2.5,4.6-2.5c1.6,0,3,0.6,4.2,1.6c1.2,1.1,2.2,2.4,2.8,3.9c0.7,1.5,1.1,3,1.2,4.5
			C-22-31.9-22.3-30.7-23-29.9z M-29.2-38.8c-0.5,0.2-1,1-1.5,2.5c-0.5,1.5-1,3.3-1.5,5.5c0.7,0,1.5-0.1,2.2-0.2
			c0.7-0.2,1.3-0.5,1.6-1.1c0.3-0.4,0.4-1,0.5-1.8c0.1-0.8,0-1.5-0.1-2.3c-0.1-0.8-0.3-1.5-0.5-2C-28.7-38.7-28.9-38.9-29.2-38.8z"
			/>
		<linearGradient id="SVGID_6_" gradientUnits="userSpaceOnUse" x1="-134.1667" y1="-32.3058" x2="356.8201" y2="-32.3058">
			<stop  offset="0" style="stop-color:#FFFFFF"/>
			<stop  offset="1" style="stop-color:#000000"/>
		</linearGradient>
		<path fill="url(#SVGID_6_)" d="M-6.1-46.6c-0.1,1.5-1,2.7-2.5,3.4c-1.5,0.7-3.1,1-4.8,0.9c-0.9-0.1-1.7-0.2-2.6-0.5
			c-0.8-0.2-1.6-0.6-2.2-1c-0.6-0.4-1.1-0.9-1.6-1.5c-0.4-0.6-0.6-1.3-0.5-2c0.1-1.5,0.9-2.6,2.2-3.4c1.4-0.8,3-1.1,5-0.9
			c1.9,0.1,3.6,0.6,5,1.5S-5.9-48-6.1-46.6z M-11.4,1.1c0,1.3-0.4,2.4-1.3,3.2c-0.9,0.8-1.9,1.4-2.9,1.8c-1,0.3-2,0.4-2.8,0.1
			c-0.8-0.3-1.1-0.9-0.9-1.8c0.2-1.1,0.4-2.6,0.5-4.6c0.2-2,0.3-4.3,0.5-6.9c0.1-2.6,0.3-5.2,0.4-8.1c0.1-2.8,0.2-5.5,0.4-8.3
			c0.1-2.7,0.2-5.2,0.2-7.4c0-2.3,0.1-4.1,0.2-5.6c0-0.8,0.4-1.4,1.2-1.9c0.8-0.4,1.7-0.7,2.6-0.7c0.9,0,1.8,0.1,2.5,0.5
			c0.7,0.4,1.1,1,1,1.8c-0.1,1.4-0.3,3.2-0.5,5.5c-0.2,2.3-0.3,4.7-0.4,7.3c-0.1,2.6-0.2,5.2-0.2,7.9c-0.1,2.7-0.1,5.2-0.2,7.5
			c0,2.3-0.1,4.4-0.1,6C-11.4-0.6-11.4,0.5-11.4,1.1z"/>
		<linearGradient id="SVGID_7_" gradientUnits="userSpaceOnUse" x1="-134.1667" y1="-32.3058" x2="356.8201" y2="-32.3058">
			<stop  offset="0" style="stop-color:#FFFFFF"/>
			<stop  offset="1" style="stop-color:#000000"/>
		</linearGradient>
		<path fill="url(#SVGID_7_)" d="M6.9-39.7c0.9,0.2,1.7,0.6,2.5,1.3c0.7,0.7,1.3,1.4,1.8,2.2c0.5-0.6,1.2-0.9,2-1
			c0.8-0.1,1.6,0,2.3,0.3c0.7,0.3,1.3,0.8,1.8,1.4c0.5,0.6,0.6,1.4,0.5,2.2c-0.3,1.2-0.5,2.7-0.8,4.5c-0.2,1.8-0.4,3.5-0.4,5.2
			c-0.1,1.7,0,3.1,0.1,4.3c0.2,1.2,0.5,1.8,1,1.8c0.4,0,0.9-0.5,1.5-1.5c0.6-1,1.1-2.2,1.7-3.7c0.6-1.4,1.1-2.8,1.5-4.2
			c0.5-1.4,0.8-2.5,0.9-3.2c0.2-0.7,0.5-1.1,1-1.4c0.5-0.2,0.9-0.3,1.3-0.2c0.4,0.1,0.8,0.4,1.1,0.8c0.3,0.4,0.3,0.9,0.1,1.5
			c-0.1,0.4-0.3,1.1-0.6,2.2c-0.3,1.1-0.7,2.3-1.2,3.6c-0.5,1.3-1,2.7-1.7,4.1c-0.6,1.4-1.4,2.7-2.2,3.8c-0.8,1.1-1.8,1.9-2.8,2.5
			c-1,0.6-2.1,0.7-3.3,0.4c-1.9-0.5-3.3-1.7-4.2-3.5c-0.5,1.6-1.3,3.1-2.2,4.4S6.6-9.4,5.1-8.8C3.7-8.3,2.5-8.2,1.4-8.5
			C-0.5-9-2-10.2-3.2-12.1c-1.1-1.9-1.9-4-2.3-6.5c-0.4-2.5-0.4-5-0.1-7.7c0.3-2.7,1-5.1,2-7.2c1-2.1,2.4-3.8,4.2-5
			C2.4-39.7,4.5-40.1,6.9-39.7z M9.5-29.6c-0.1-1.1-0.4-2.2-0.8-3.3c-0.4-1.1-0.9-1.7-1.7-1.8c-1.1-0.2-2,0.2-2.8,1.1
			c-0.8,1-1.5,2.2-2.1,3.9c-0.5,1.6-0.9,3.3-1.1,5.2c-0.2,1.9-0.3,3.7-0.2,5.4c0.1,1.7,0.4,3.1,0.8,4.4c0.4,1.2,1.1,1.9,2,2
			c0.9,0.1,1.7-0.3,2.5-1.4c0.8-1.1,1.4-2.4,2-4.1c0.6-1.7,1-3.5,1.3-5.6C9.7-25.7,9.7-27.7,9.5-29.6z"/>
		<linearGradient id="SVGID_8_" gradientUnits="userSpaceOnUse" x1="-134.1667" y1="-32.3058" x2="356.8201" y2="-32.3058">
			<stop  offset="0" style="stop-color:#FFFFFF"/>
			<stop  offset="1" style="stop-color:#000000"/>
		</linearGradient>
		<path fill="url(#SVGID_8_)" d="M23.7-34.8c0.2-1.3,0.8-2.3,1.7-3c0.9-0.7,1.9-1,2.9-1.1c1-0.1,1.8,0.1,2.5,0.6
			c0.7,0.5,1,1.2,0.9,2.2c-0.1,0.9-0.3,2-0.6,3.2c-0.2,1.2-0.4,2.3-0.6,3.5c-0.2,1.2-0.4,2.3-0.5,3.3c-0.1,1-0.1,1.9,0,2.5
			c0.5-1.8,1.1-3.4,1.8-4.8c0.7-1.4,1.4-2.7,2.2-3.7c0.5-0.7,1.3-1.2,2.2-1.5c0.9-0.4,1.8-0.5,2.7-0.5c0.9,0,1.6,0.3,2.1,0.8
			c0.5,0.5,0.6,1.1,0.3,2c-0.2,0.6-0.4,1.5-0.5,2.8c-0.2,1.3-0.2,2.6-0.2,3.9c0,1.3,0.1,2.4,0.2,3.4c0.1,1,0.4,1.5,0.7,1.5
			c0.4,0,0.9-0.4,1.6-1.1c0.7-0.7,1.3-1.6,2-2.6c0.7-1,1.3-2.1,1.8-3.3c0.6-1.2,1-2.2,1.2-3.1c0.1-0.6,0.4-1,0.9-1.2
			c0.4-0.2,0.8-0.3,1.2-0.2c0.4,0.1,0.7,0.3,1,0.6c0.3,0.4,0.3,0.9,0.2,1.5c-0.2,0.9-0.7,2.2-1.4,3.8c-0.7,1.6-1.6,3.2-2.6,4.7
			c-1,1.5-2.1,2.9-3.3,4c-1.2,1.2-2.4,1.8-3.5,1.8c-1.9,0-3.3-0.5-4.1-1.5c-0.8-1-1.4-2.2-1.7-3.5c-0.3-1.3-0.4-2.6-0.3-3.8
			c0.1-1.2,0-2-0.1-2.3c-0.3,0.1-0.7,0.6-1,1.4C33-24,32.7-23,32.3-22c-0.3,1.1-0.6,2.2-0.9,3.4c-0.3,1.2-0.4,2.1-0.5,3
			c-0.1,0.9-0.6,1.5-1.3,1.9c-0.8,0.4-1.6,0.6-2.5,0.6s-1.7-0.2-2.5-0.7c-0.7-0.5-1.1-1.2-1-2.2c0.1-1.1,0.1-2.5,0-4.1
			c-0.1-1.6-0.1-3.3-0.2-5c-0.1-1.8-0.1-3.5-0.1-5.1C23.3-31.9,23.5-33.4,23.7-34.8z"/>
		<linearGradient id="SVGID_9_" gradientUnits="userSpaceOnUse" x1="-134.1667" y1="-32.3058" x2="356.8201" y2="-32.3058">
			<stop  offset="0" style="stop-color:#FFFFFF"/>
			<stop  offset="1" style="stop-color:#000000"/>
		</linearGradient>
		<path fill="url(#SVGID_9_)" d="M65.1-55.5c0-1.6,0.4-2.7,1.3-3.4c0.9-0.6,1.8-0.9,2.8-0.8c1,0.1,1.9,0.4,2.7,1.1
			c0.8,0.7,1,1.5,0.8,2.6c-0.1,0.8-0.3,2.3-0.6,4.6c-0.3,2.2-0.5,4.8-0.8,7.8c-0.3,2.9-0.6,6-0.8,9.1c-0.2,3.1-0.3,6-0.3,8.7
			c0,2.7,0.1,4.9,0.4,6.5c0.2,1.7,0.7,2.6,1.3,2.6c0.6,0,1.2-0.6,1.9-1.7c0.6-1.1,1.2-2.4,1.8-3.9s1.1-3,1.5-4.4
			c0.4-1.4,0.7-2.5,0.9-3.1c0.2-0.7,0.5-1.1,0.9-1.4c0.4-0.2,0.9-0.3,1.3-0.2c0.4,0.1,0.8,0.4,1.1,0.8s0.4,0.9,0.2,1.6
			c-0.1,0.7-0.4,2-0.9,3.9c-0.5,1.9-1.2,3.9-2.1,5.9c-0.9,2-2.2,3.9-3.7,5.5s-3.3,2.4-5.3,2.4c-1.5,0-2.7-0.6-3.5-1.9
			c-0.8-1.2-1.5-2.8-2-4.8c-0.5,1.3-1.2,2.4-2.2,3.4c-0.9,1-2,1.7-3.3,2.2c-1.5,0.5-2.7,0.6-3.8,0.2c-1.9-0.5-3.5-1.5-4.6-3.1
			c-1.1-1.6-1.9-3.5-2.3-5.7c-0.4-2.2-0.5-4.4-0.2-6.8c0.3-2.3,1-4.4,2.1-6.3c1-1.9,2.4-3.3,4.1-4.4c1.7-1,3.8-1.4,6.3-1
			c1.3,0.2,2.5,0.9,3.5,2.1c0.3-3.8,0.6-7.3,0.9-10.6C65-51.3,65.1-53.8,65.1-55.5z M62.8-30.8c-0.1-0.9-0.4-1.9-0.8-2.8
			c-0.4-0.9-0.9-1.5-1.7-1.6c-1.1-0.2-2,0.1-2.8,1c-0.8,0.9-1.5,2-2,3.3c-0.5,1.4-0.9,2.9-1.2,4.6c-0.2,1.7-0.3,3.2-0.2,4.8
			c0.1,1.5,0.4,2.8,0.9,3.8c0.5,1,1.1,1.6,2,1.8c0.9,0.1,1.7-0.3,2.4-1.2c0.8-0.9,1.4-2.1,2-3.6c0.6-1.5,1-3.1,1.2-4.9
			C63-27.5,63-29.2,62.8-30.8z"/>
		<linearGradient id="SVGID_10_" gradientUnits="userSpaceOnUse" x1="-134.1667" y1="-32.3058" x2="356.8201" y2="-32.3058">
			<stop  offset="0" style="stop-color:#FFFFFF"/>
			<stop  offset="1" style="stop-color:#000000"/>
		</linearGradient>
		<path fill="url(#SVGID_10_)" d="M81.1-28.7c-0.1,0.5-0.4,0.9-0.8,1.1c-0.4,0.2-0.9,0.3-1.3,0.2c-0.5-0.1-0.8-0.3-1.1-0.7
			c-0.3-0.4-0.3-0.9,0-1.5l0.6-1.7c-0.6-0.6-0.9-1.3-1-2.1c-0.1-0.8,0.1-1.6,0.4-2.2c0.3-0.7,0.8-1.3,1.5-1.8
			c0.6-0.5,1.3-0.8,2.2-0.8c1.4,0,2.2,0.5,2.3,1.6c0.1,1-0.1,2.2-0.6,3.4c0.4,0.2,1.1,0.2,2,0.1c0.9-0.1,1.8-0.2,2.5-0.2
			c0.8,0,1.5,0.1,2,0.5c0.5,0.3,0.7,1.1,0.4,2.3c-0.3,1.2-0.5,2.6-0.8,4.3c-0.3,1.7-0.5,3.2-0.7,4.8c-0.1,1.5-0.1,2.8,0,3.8
			c0.1,1.1,0.5,1.6,1.1,1.6c0.4,0,0.9-0.6,1.6-1.8c0.6-1.2,1.3-2.5,1.9-4c0.7-1.5,1.3-3.1,1.8-4.6c0.5-1.6,0.9-2.8,1-3.6
			c0.1-0.7,0.4-1.1,0.8-1.4c0.4-0.3,0.9-0.4,1.3-0.4c0.5,0,0.9,0.2,1.2,0.6c0.3,0.4,0.4,0.9,0.3,1.5c-0.1,0.3-0.2,1.1-0.5,2.2
			c-0.3,1.1-0.6,2.3-1.1,3.7c-0.5,1.4-1,2.8-1.7,4.3c-0.7,1.5-1.5,2.9-2.4,4.1c-0.9,1.3-2,2.3-3.1,3c-1.1,0.8-2.4,1.1-3.8,1.1
			c-1.6-0.1-2.8-0.8-3.5-2.2c-0.7-1.4-1.2-3-1.4-4.9c-0.2-1.9-0.1-3.9,0.2-6c0.3-2.1,0.7-4,1.2-5.6c-0.3,0.1-0.7,0.1-1,0.1
			c-0.3,0-0.7,0-1,0C81.3-29.4,81.2-29.1,81.1-28.7z"/>
		<linearGradient id="SVGID_11_" gradientUnits="userSpaceOnUse" x1="-134.1667" y1="-32.3058" x2="356.8201" y2="-32.3058">
			<stop  offset="0" style="stop-color:#FFFFFF"/>
			<stop  offset="1" style="stop-color:#000000"/>
		</linearGradient>
		<path fill="url(#SVGID_11_)" d="M105-15c-2.5,0-4.4-0.6-5.9-1.9c-1.5-1.3-2.5-2.8-3-4.7c-0.6-1.9-0.7-3.9-0.5-6.1
			c0.2-2.2,0.8-4.2,1.7-6.1c0.9-1.8,2.1-3.4,3.6-4.5c1.5-1.2,3.2-1.7,5.2-1.6c2.3,0.1,4.2,0.8,5.7,2.1c1.5,1.3,2.5,2.8,3.2,4.7
			c0.7,1.9,1,3.9,0.8,6c-0.1,2.1-0.6,4-1.4,5.9c-0.9,1.8-2.1,3.3-3.7,4.5C109.1-15.6,107.2-15,105-15z M106.3-19.5
			c0.7,0.1,1.3-0.3,1.8-1c0.5-0.8,0.8-1.8,1-3c0.2-1.2,0.3-2.6,0.2-4.1c0-1.5-0.2-2.8-0.5-4.1c-0.3-1.3-0.7-2.3-1.2-3.2
			c-0.5-0.9-1.2-1.3-1.9-1.3c-0.7,0-1.2,0.4-1.7,1.2c-0.5,0.8-0.8,1.8-1,3c-0.2,1.2-0.3,2.5-0.3,4c0,1.4,0.1,2.8,0.4,4
			c0.3,1.2,0.7,2.3,1.2,3.1C104.8-20,105.5-19.5,106.3-19.5z"/>
		<linearGradient id="SVGID_12_" gradientUnits="userSpaceOnUse" x1="-134.1667" y1="-32.3058" x2="356.8201" y2="-32.3058">
			<stop  offset="0" style="stop-color:#FFFFFF"/>
			<stop  offset="1" style="stop-color:#000000"/>
		</linearGradient>
		<path fill="url(#SVGID_12_)" d="M174.6-1.7c-3.4,0-6.9-0.6-10.5-1.7c-3.6-1.1-7-2.8-10-5c-3.1-2.2-5.6-4.8-7.6-8
			c-2-3.2-2.9-6.8-2.9-10.8c0-2,0.3-3.4,0.8-4.2c0.5-0.8,1-1.2,1.4-1.2c0.7,0,1.4,0.6,2.2,1.8c0.8,1.2,1.7,2.9,2.8,5.1
			c1.2,2.3,2.6,4.4,4.2,6.2c1.6,1.9,3.3,3.5,5.3,4.9c2,1.4,4.2,2.5,6.7,3.3c2.4,0.8,5.1,1.2,8,1.2c4.3,0,8-0.7,11-2.1
			c3.1-1.4,5.8-3.3,8-5.6c2.2-2.3,4-5,5.4-8.1c1.4-3.1,2.5-6.2,3.4-9.5c0.9-3.3,1.5-6.6,2-10c0.4-3.4,0.8-6.6,1-9.6
			c0-0.4,0-1,0.1-1.8c0-0.8,0.1-1.6,0.1-2.6c0-1,0.1-2,0.1-3c0-1,0.1-2,0.2-2.8c-4.8,0.4-9.7,0.9-14.6,1.6c-5,0.7-10,1.3-15,1.9
			c-5,0.6-10,1-15,1.3c-5,0.3-10,0.3-14.9-0.1c-0.7-0.1-1.6-0.2-2.7-0.4c-1.1-0.2-2.1-0.6-3.1-1c-1-0.4-1.8-0.9-2.4-1.6
			c-0.7-0.7-1-1.5-1-2.4c0-0.8,0.6-1.4,1.9-1.8c1.3-0.4,2.8-0.7,4.5-0.9c1.8-0.2,3.6-0.2,5.6-0.2c1.9,0,3.6,0.1,4.9,0.1
			c6.2-0.2,11.7-0.4,16.5-0.6c4.8-0.2,9.2-0.3,13-0.5c3.9-0.2,7.5-0.3,10.7-0.4s6.4-0.2,9.5-0.2c0.4,0,1.4-0.1,3-0.2
			c1.6-0.1,3.3-0.2,5-0.2c1.8,0,3.3,0.1,4.7,0.4c1.4,0.3,2,0.9,2,1.9c0,0.7-0.3,1.3-0.8,1.7c-0.6,0.4-1.3,0.7-2.2,0.9
			c-0.9,0.2-2,0.4-3.2,0.5c-1.2,0.1-2.4,0.1-3.6,0.1c0.3,1.1,0.6,2.5,0.9,4c0.3,1.5,0.6,3.1,0.8,4.9c0.2,1.7,0.4,3.4,0.5,5
			c0.1,1.7,0.2,3.2,0.2,4.6c0,5.5-0.8,11-2.4,16.4c-1.6,5.4-3.9,10.2-7,14.4c-3.1,4.3-7,7.7-11.5,10.4C186-3,180.7-1.7,174.6-1.7z"
			/>
		<linearGradient id="SVGID_13_" gradientUnits="userSpaceOnUse" x1="-134.1667" y1="-32.3058" x2="356.8201" y2="-32.3058">
			<stop  offset="0" style="stop-color:#FFFFFF"/>
			<stop  offset="1" style="stop-color:#000000"/>
		</linearGradient>
		<path fill="url(#SVGID_13_)" d="M228.2-39.7c0.9,0.2,1.8,0.6,2.5,1.3c0.7,0.7,1.3,1.4,1.8,2.2c0.5-0.6,1.2-0.9,2-1
			c0.8-0.1,1.6,0,2.3,0.3c0.7,0.3,1.3,0.8,1.8,1.4c0.5,0.6,0.6,1.4,0.5,2.2c-0.3,1.2-0.5,2.7-0.8,4.5c-0.2,1.8-0.4,3.5-0.4,5.2
			c-0.1,1.7,0,3.1,0.1,4.3c0.2,1.2,0.5,1.8,1,1.8c0.4,0,0.9-0.5,1.5-1.5c0.6-1,1.1-2.2,1.7-3.7c0.6-1.4,1.1-2.8,1.5-4.2
			c0.5-1.4,0.8-2.5,0.9-3.2c0.2-0.7,0.5-1.1,1-1.4c0.5-0.2,0.9-0.3,1.3-0.2c0.4,0.1,0.8,0.4,1.1,0.8c0.3,0.4,0.3,0.9,0.1,1.5
			c-0.1,0.4-0.3,1.1-0.6,2.2c-0.3,1.1-0.7,2.3-1.2,3.6c-0.5,1.3-1,2.7-1.7,4.1c-0.6,1.4-1.4,2.7-2.2,3.8c-0.8,1.1-1.8,1.9-2.8,2.5
			c-1,0.6-2.1,0.7-3.3,0.4c-1.9-0.5-3.3-1.7-4.2-3.5c-0.5,1.6-1.3,3.1-2.2,4.4s-2.1,2.2-3.6,2.9c-1.4,0.5-2.6,0.6-3.7,0.3
			c-1.9-0.5-3.5-1.7-4.6-3.6c-1.1-1.9-1.9-4-2.3-6.5c-0.4-2.5-0.4-5-0.1-7.7c0.3-2.7,1-5.1,2-7.2c1-2.1,2.4-3.8,4.2-5
			C223.7-39.7,225.8-40.1,228.2-39.7z M230.8-29.6c-0.1-1.1-0.4-2.2-0.8-3.3c-0.4-1.1-0.9-1.7-1.7-1.8c-1.1-0.2-2,0.2-2.9,1.1
			c-0.8,1-1.5,2.2-2.1,3.9c-0.5,1.6-0.9,3.3-1.1,5.2c-0.2,1.9-0.3,3.7-0.2,5.4c0.1,1.7,0.4,3.1,0.8,4.4c0.4,1.2,1.1,1.9,2,2
			c0.9,0.1,1.7-0.3,2.5-1.4c0.8-1.1,1.4-2.4,2-4.1c0.6-1.7,1-3.5,1.3-5.6C231-25.7,231-27.7,230.8-29.6z"/>
		<linearGradient id="SVGID_14_" gradientUnits="userSpaceOnUse" x1="-134.1667" y1="-32.3058" x2="356.8201" y2="-32.3058">
			<stop  offset="0" style="stop-color:#FFFFFF"/>
			<stop  offset="1" style="stop-color:#000000"/>
		</linearGradient>
		<path fill="url(#SVGID_14_)" d="M256.1-46.9c0.1,0.7,0,1.4-0.2,2c-0.3,0.6-0.8,1.2-1.3,1.7c-0.6,0.5-1.3,0.9-2.1,1.2
			c-0.8,0.3-1.6,0.6-2.5,0.7c-1.7,0.2-3.3,0-4.9-0.5c-1.6-0.5-2.5-1.5-2.7-2.9c-0.3-1.5,0.2-2.7,1.3-3.8c1.2-1,2.7-1.7,4.7-2
			c1.9-0.3,3.7-0.2,5.2,0.5C255.1-49.3,255.9-48.3,256.1-46.9z M244.7-33.2c0-1.6,0.4-2.7,1.2-3.3c0.8-0.6,1.8-0.8,2.8-0.7
			c1,0.1,1.9,0.6,2.6,1.3c0.7,0.7,1,1.6,0.8,2.7c-0.3,1.2-0.5,2.7-0.8,4.5c-0.2,1.8-0.4,3.5-0.5,5.2c-0.1,1.7,0,3.1,0.2,4.3
			c0.2,1.2,0.5,1.8,1.1,1.8c0.4,0,0.9-0.5,1.5-1.5c0.6-1,1.1-2.2,1.7-3.7c0.5-1.4,1-2.8,1.5-4.2c0.5-1.4,0.8-2.5,0.9-3.2
			c0.2-0.7,0.5-1.1,1-1.4c0.5-0.2,0.9-0.3,1.4-0.2c0.4,0.1,0.8,0.4,1.1,0.8s0.4,0.9,0.2,1.5c-0.1,0.4-0.4,1.1-0.7,2.2
			s-0.7,2.3-1.1,3.6c-0.5,1.3-1,2.7-1.7,4.1c-0.6,1.4-1.4,2.7-2.2,3.8c-0.8,1.1-1.8,1.9-2.8,2.5s-2.1,0.7-3.3,0.4
			c-1.8-0.5-3.1-1.5-3.8-2.9c-0.8-1.4-1.2-3.1-1.4-5c-0.1-1.9-0.1-4,0-6.2C244.6-28.8,244.7-31,244.7-33.2z"/>
		<linearGradient id="SVGID_15_" gradientUnits="userSpaceOnUse" x1="-134.1667" y1="-32.3058" x2="356.8201" y2="-32.3058">
			<stop  offset="0" style="stop-color:#FFFFFF"/>
			<stop  offset="1" style="stop-color:#000000"/>
		</linearGradient>
		<path fill="url(#SVGID_15_)" d="M258-36.1c0.3-1.5,0.9-2.6,1.9-3.4c1-0.8,2-1.4,3-1.7c1-0.3,1.9-0.3,2.7-0.1
			c0.8,0.2,1,0.8,0.8,1.6c-0.2,0.9-0.4,2.2-0.7,3.8c-0.3,1.6-0.5,3.2-0.7,4.9c-0.2,1.7-0.4,3.2-0.5,4.8c-0.1,1.5-0.2,2.6-0.2,3.2
			c0.3-0.9,0.6-1.9,1-2.9c0.4-1,0.8-2,1.2-2.9c0.4-1,0.9-1.9,1.3-2.7c0.5-0.8,0.9-1.4,1.3-1.9c0.5-0.7,1.2-1.2,2.2-1.5
			c1-0.4,1.9-0.6,2.7-0.6c0.8,0,1.5,0.2,2,0.7c0.5,0.5,0.6,1.1,0.3,2c-0.1,0.4-0.3,1.2-0.4,2.3c-0.1,1.1-0.3,2.4-0.4,3.7
			c0.4-0.9,0.9-2,1.6-3.1c0.7-1.1,1.3-2.2,2-3.2c0.7-1,1.3-2,1.9-2.9c0.6-0.9,1-1.5,1.3-1.9c0.5-0.7,1.2-1.2,2.1-1.6
			c0.9-0.4,1.8-0.6,2.7-0.6c0.9,0,1.6,0.2,2.2,0.6c0.6,0.4,0.9,1.1,0.8,2.1c-0.1,0.5-0.2,1.3-0.3,2.4c-0.2,1.1-0.4,2.4-0.7,3.9
			c-0.3,1.5-0.5,3-0.8,4.6c-0.2,1.6-0.4,3.1-0.6,4.4c-0.2,1.3-0.3,2.4-0.3,3.2c0,0.9,0.1,1.3,0.3,1.3c0.4,0,0.9-0.5,1.6-1.4
			c0.7-0.9,1.3-2,1.9-3.3c0.6-1.3,1.2-2.7,1.8-4.1c0.6-1.4,1-2.5,1.2-3.4c0.2-0.6,0.5-1,0.9-1.2c0.4-0.2,0.9-0.3,1.2-0.2
			c0.4,0.1,0.7,0.3,1,0.7c0.3,0.4,0.3,0.9,0.2,1.5c-0.2,0.9-0.6,2.2-1.3,3.9c-0.7,1.7-1.5,3.4-2.5,5.1c-1,1.7-2.1,3.3-3.3,4.7
			c-1.2,1.4-2.4,2.2-3.7,2.4c-1.4,0.3-2.5,0.1-3.4-0.5c-0.8-0.6-1.4-1.5-1.8-2.6c-0.4-1.1-0.6-2.4-0.7-3.8c-0.1-1.4,0-2.9,0.1-4.2
			c0.1-1.4,0.3-2.7,0.5-3.8c0.2-1.1,0.4-1.9,0.6-2.5c-0.3,0.1-0.8,0.8-1.5,1.9c-0.7,1.1-1.3,2.4-2,3.8c-0.7,1.4-1.3,2.7-2,4
			c-0.6,1.3-1,2.2-1.2,2.6v-0.1c-0.1,0.4-0.4,0.8-0.9,1.3s-1.1,0.9-1.8,1.2c-0.7,0.3-1.3,0.5-1.9,0.5c-0.6,0-1-0.3-1.1-1
			c-0.2-0.7-0.3-1.6-0.4-2.8c-0.1-1.2-0.1-2.3-0.1-3.4c0-1.1,0-2.1,0-3c0-0.9,0-1.4,0-1.6c-0.3,0.1-0.7,0.7-1.1,1.8
			c-0.4,1.1-0.8,2.3-1.2,3.6c-0.4,1.3-0.8,2.7-1.1,4.1c-0.3,1.4-0.6,2.5-0.7,3.3c-0.1,0.9-0.6,1.5-1.4,1.9c-0.8,0.4-1.6,0.6-2.5,0.6
			c-0.9,0-1.7-0.2-2.4-0.7c-0.7-0.5-1-1.2-1-2.2c0.1-1.1,0-2.6,0-4.5c-0.1-1.9-0.2-3.9-0.3-6c-0.1-2.1-0.2-4.1-0.2-6.1
			S257.8-34.7,258-36.1z"/>
		<linearGradient id="SVGID_16_" gradientUnits="userSpaceOnUse" x1="-134.1667" y1="-32.3058" x2="356.8201" y2="-32.3058">
			<stop  offset="0" style="stop-color:#FFFFFF"/>
			<stop  offset="1" style="stop-color:#000000"/>
		</linearGradient>
		<path fill="url(#SVGID_16_)" d="M311.2-29.9c-0.5,0.7-1.2,1.3-2,1.8c-0.8,0.5-1.7,0.9-2.6,1.2c-0.9,0.3-1.9,0.5-2.8,0.6
			c-1,0.1-1.8,0.2-2.6,0.3c-0.2,1.4-0.3,2.8-0.3,4.1c0,1.3,0,2.5,0.2,3.6c0.2,1.1,0.4,2,0.8,2.7c0.4,0.7,0.9,1.2,1.5,1.4
			c0.9,0.3,1.8,0.1,2.8-0.5c1-0.6,2-1.4,2.9-2.4c0.9-1,1.8-2.2,2.7-3.5c0.9-1.3,1.6-2.6,2.3-3.9c0.7-1.2,1.2-2.4,1.7-3.4
			c0.5-1,0.8-1.8,0.9-2.2c0.2-0.6,0.5-1,1-1.2c0.4-0.2,0.9-0.3,1.2-0.2c0.4,0.1,0.7,0.3,1,0.6c0.3,0.4,0.3,0.9,0.2,1.5
			c-0.1,0.4-0.4,1.2-0.7,2.4c-0.3,1.2-0.8,2.5-1.5,3.9c-0.6,1.5-1.4,3-2.3,4.6c-0.9,1.6-2,3-3.2,4.3c-1.3,1.3-2.7,2.4-4.3,3.2
			c-1.6,0.9-3.5,1.3-5.5,1.3c-2.4,0-4.3-0.8-5.6-2.5c-1.3-1.7-2.2-3.8-2.7-6.3c-0.5-2.5-0.5-5.2-0.2-8.1s0.9-5.6,1.8-8.1
			c0.9-2.5,2-4.6,3.4-6.3c1.4-1.7,2.9-2.5,4.5-2.5c1.6,0,3,0.6,4.2,1.6c1.2,1.1,2.2,2.4,2.8,3.9c0.7,1.5,1,3,1.2,4.5
			C312.2-31.9,311.9-30.7,311.2-29.9z M305-38.8c-0.5,0.2-1,1-1.5,2.5c-0.5,1.5-1,3.3-1.5,5.5c0.7,0,1.5-0.1,2.2-0.2
			c0.7-0.2,1.3-0.5,1.6-1.1c0.3-0.4,0.4-1,0.5-1.8c0.1-0.8,0-1.5,0-2.3c-0.1-0.8-0.3-1.5-0.5-2C305.5-38.7,305.3-38.9,305-38.8z"/>
	</g>
	
		<text transform="matrix(1 0 0 1 -134.1665 -12.3555)" display="inline" font-family="'RemachineScriptPersonalUse'" font-size="100">Alejandro Jaime</text>
</g>
</svg>
