<svg version="1" xmlns="http://www.w3.org/2000/svg" width="3270.667" height="3270.667" viewBox="0 0 2453.000000 2453.000000"><path d="M1351 1.5c-10.6 3-19.2 10.1-23.1 19.2-2.8 6.7-4.2 17.6-3.5 27.2 1.4 16.6 6.7 32.3 31.5 94.1l12.9 31.9-4.2-.5c-9.1-1-56.5-4.4-78.5-5.5-31.2-1.5-110.4-.7-138.6 1.5-11.5 1-29.1 2.6-38.9 3.6-9.9 1.1-23.9 2-31.3 2-9.3 0-15.9.6-22.1 1.9-4.8 1-13.6 2.2-19.7 2.5-27.6 1.7-56.7 6.2-112.9 17.6-101 20.5-158.7 38.7-218.8 69.2-29.5 14.9-44.7 26.4-54.7 41.3-6.6 9.9-9.1 16.9-9.1 25.4 0 15.6 7.4 25.2 28.5 36.6 8.1 4.3 29 12.2 85.9 32.3l31 11-4 2c-2.1 1.1-14 6.7-26.4 12.5-68.9 32.2-106.1 51.9-141.9 75.4-7.9 5.2-17.1 10.8-20.5 12.5-21.2 10.7-87.2 57.2-131.1 92.5-86.7 69.6-145.4 129-180.8 182.9-23.5 35.8-32 55.9-30.2 71.7 1.5 12.7 12.3 27.3 23.2 31.2 2.6.9 8.9 1.9 13.8 2.2 12.5.7 42.7-2.8 62.7-7.3 11.4-2.5 19.9-3.8 28.1-4.1 6.4-.3 11.7-.3 11.7-.1 0 3.4-9.5 20-25 43.8-15.4 23.6-15.9 24.5-35.2 59.5-29.7 53.6-44.5 82.7-58.3 114.5-3.5 8-10.3 22.7-15.3 32.7-26.6 53.9-48.3 115.6-66.2 187.9-10.3 41.2-11.4 49.2-11.4 81.4-.1 23.4.2 28.5 1.7 34 3.5 13 9.4 21.6 17.6 25.7 2.7 1.3 5.8 1.8 12.1 1.7 11.7-.1 18.2-2.9 40.9-18.1 10-6.8 18.7-12 19.2-11.7 1.4.8 1.1 10.5-.6 18.5-4.2 19.8-11 76.8-13.4 112.9-2.7 39.1-3.5 87.2-2.3 145.5.7 31.9 1.7 62.7 2.2 68.5 4.2 45.1 12.5 99.8 20.6 135 11.9 51.8 34.5 95.1 52.8 101.3 6.6 2.2 16 2.2 21.1-.2 10.3-4.7 20.2-21.9 30.6-53.3 3.9-11.6 8.4-23.9 10.1-27.2l3.1-6.1 7.2 21.5c7.6 22.6 11.1 32.1 19.3 51 2.7 6.3 7.1 16.7 9.7 23 11.4 27.4 31.8 66.2 57.7 109.5 6.9 11.5 13.8 23.5 15.3 26.5 4.2 8.4 10.1 16.6 14.4 20 2.4 2 4.2 4.5 5 7 .6 2.1 2.9 5.5 5 7.5 2.1 2.1 4.1 5 4.5 6.5 1.2 6.1 36.6 53.7 62.1 83.5 33.8 39.5 58.8 62.6 84.5 77.9 20.4 12.1 33.9 15.3 44.8 10.6 9.3-4 14.2-11.6 14.2-22 0-7-4.5-32.7-9-51.4-2.2-9.3-3.9-17-3.7-17.2.2-.2 1.9.9 3.8 2.5 7.2 6 41.3 30 60.4 42.6 88.1 58.1 169.4 95.4 252.7 116 28.1 6.9 34.7 7.8 53.8 7.3 18.8-.5 26.7-2.4 34.2-8.1 6.1-4.7 8.2-8.8 8.1-16.1 0-8.3-3.1-15.6-9.9-24.1-5.2-6.4-10.1-15.1-9.2-16.1.3-.2 6.5.3 14 1 35.9 3.8 89.8 4.5 124.8 1.6 59-4.8 129.8-18.3 174-33.1 40.2-13.4 73.7-33.9 77.8-47.7 2.5-8.3.3-16.4-5.8-21.6-5.5-4.6-22.5-12.5-32.8-15.3-10.6-2.8-15.7-5-18.5-8.1-1.8-2-1.8-2.1 4.5-4.9 3.5-1.5 10.9-6.2 16.5-10.4 7.2-5.4 12.2-8.4 16.8-9.9 20-6.7 76.5-51.7 110.3-88 34-36.6 56.4-67 65.6-89.2 8.9-21.5 9.9-38.5 2.8-46.9-7-8.4-19.7-9.3-45.9-3.5-8.9 2-18.9 3.6-22.2 3.6h-6l-.6-3.4c-.5-2.3.2-6.7 1.9-13.3 14.8-55.3 18.7-92.2 18.9-180.8l.1-52-4.2-27c-4.6-29.6-7.2-40.5-13.2-55.9-6.6-16.8-14.3-25.6-22.5-25.6-6.9.1-19.5 9.2-23.6 17.1-2.1 4.2-6.3 7.9-9 7.9-1 0-3.9-3.1-7.4-8.1-4.4-6.3-6-9.6-7.1-14.5-3.1-15.1-22.9-45.8-49.8-77.4-13.6-15.9-46.5-48.9-60.6-60.7-16.2-13.6-33.2-24.9-49.5-32.8-14.7-7.2-22.7-9.8-30-9.8-6.5 0-9 1.4-11.7 6.6-1.9 3.6-2.2 6.2-2.5 18.7-.2 7.9-.5 14.5-.6 14.6-.1 0-7.3-1.8-15.9-4.2-22.2-6-33.5-7.5-59.9-8.1-28.8-.7-44.5.6-87.4 7.3-13.5 2.2-28.4 7.1-44 14.8-10.3 5-14 7.5-17.8 11.5-7.7 8.3-6.8 16.3 3.7 31.6 2.5 3.7 4.6 7.7 4.6 8.9 0 1.4-1.8 3.4-5.3 5.8-7.5 5.5-35.4 34.1-42.7 43.9-3.4 4.5-9.3 14.6-13.1 22.3-3.8 7.6-7.5 14.6-8.3 15.5-8.9 10.2-16.9 48.7-11.9 58.1 1 1.9 3.3 4.5 5.2 5.7 4.7 3.2 15.3 3.1 29.9-.2 6.1-1.4 11.6-2.5 12.1-2.5.7 0 1.1 2.3 1.1 5.4 0 11.8 4.1 28.2 10.9 43 10.5 23.2 33.6 46.8 57.5 59 17.2 8.8 32.8 12.6 51.7 12.6 15.4 0 23.7-1.8 36.9-8.2 9.3-4.5 11.5-6.1 20.1-14.7 8.2-8.2 10.3-11 14.2-19.1 10.4-21 11.3-37.6 3.2-54.8-3.8-8-11.4-16.8-17.9-20.6-14.5-8.5-30-6.5-30 3.8 0 2.8 1 4.5 4.8 8.6 8.8 9.4 10.5 17.4 5.7 27.2-11.1 23-39.1 25-61 4.2-15.9-14.9-20.2-35.7-12.2-59.4 9.1-27 27.3-44.4 58.1-55.5 7.1-2.6 8.2-2.7 20.5-2.2 36.6 1.5 67.3 14.4 91.5 38.7 15.4 15.3 27.7 33.9 32.4 48.7 5.8 18.6 7 27.2 7 49.8 0 22.6-1.1 31.6-6 49-2.3 8.1-16.6 47.3-18.2 50.1-17 29-50.2 63-81 82.8-17.8 11.6-49.1 22-80.9 27.2-12.9 2-54.8 3.1-59.4 1.5-1.9-.6-9.9-2.1-17.9-3.2-58.3-8.1-108.9-28.8-157.9-64.4-8.4-6.1-15.7-10.7-17.7-11.1-2.6-.5-3.4-1.2-4-3.6-.4-1.9-2.6-4.8-5.8-7.7-35.2-31.5-68-77.1-86.6-120.4-19.3-45.1-28.2-90.2-28.2-143.2 0-52 8.2-101.1 26.1-155.3 11.3-34.3 19.7-54.3 32-75.8 29.3-51.4 58.2-90.4 94.1-126.4 26.9-27.1 47.7-45.7 55.3-49.5l7-3.5 12.3 11.9c19.7 19.1 42.5 35.1 68.1 48 28.3 14.1 69.6 27 96.6 30.2 14.6 1.7 53.8.7 59.7-1.5 8.5-3.2 13-9.5 13-18.3 0-9.7-6.7-17.6-21-24.8-17.9-9-38.4-26.1-50-41.6-7.1-9.5-15-24.8-18.4-35.7-11.5-36.7 2.6-75.1 35.6-97.3l9-5.9 2.6 1.9c1.5 1.1 19.7 18.6 40.4 38.9 51.8 50.8 68.7 66 106.4 95.3 40.2 31.3 83 57.1 116.4 70.2 46.7 18.3 103.8 25 168 19.6 18.1-1.5 24.9-5.8 28-17.7 3.7-14.2-7-24.4-48-45.8-21.9-11.4-33.5-18.2-49.5-29.2-45.6-31.1-86.3-73.4-119.8-124.5-5.2-7.8-10.7-16.7-12.4-19.7-7.8-14.1-13.3-31.4-13.3-41.8v-5.2h3.3c1.7 0 10.4-.7 19.2-1.6 13.5-1.3 50-1.7 236.5-2.4 218.7-.8 234.4-1.1 272.5-4.6 73-6.6 140.3-24 187.5-48.5 24.1-12.6 41.8-25.6 59.1-43.6 13.9-14.6 22.4-26.7 31.4-44.8 11.9-24 17.7-43.7 21.6-73.5 2.5-19.2 2.7-68.8.3-89-9.4-82-48.5-172.5-109.4-253.5-60.8-80.9-156.5-172.6-249-238.7-9.6-6.8-21.1-14.8-25.5-17.8-4.4-2.9-9.7-6.8-11.8-8.7-2-1.8-4.4-3.3-5.3-3.3-.9 0-5-2.8-9.3-6.2-11.1-9-25.7-18.3-49-31.5-15.1-8.5-21.6-12.7-24.4-15.9-4.8-5.5-20.5-14.8-55.2-32.7-14.8-7.7-35.5-18.7-46-24.4C1600.5 61 1481.7 14.8 1415 3c-16.6-3-55.4-3.8-64-1.5z"/></svg>